<svg width="820" height="160" viewBox="0 0 820 160" fill="none" xmlns="http://www.w3.org/2000/svg">
<path d="M64.43 25.68C54.78 25.68 51.9901 29.96 51.9901 39.4V55.06H77.73L75.15 80.36H52V157.14H21.11V80.36H0.300049V55.06H21.11V39.83C21.11 14.31 31.4 0.829992 60.11 0.829992C66.1263 0.815881 72.1378 1.17323 78.11 1.89999V25.71L64.43 25.68Z" fill="#1877F2"/>
<path d="M79.8701 102.88C79.8701 74.3599 93.3801 52.8799 121.69 52.8799C137.13 52.8799 146.56 60.8199 151.07 70.6799V55.0599H180.66V157.14H151.07V141.7C146.78 151.57 137.13 159.29 121.69 159.29C93.3801 159.29 79.8701 137.84 79.8701 109.29V102.88ZM110.75 109.75C110.75 124.97 116.32 135.05 130.69 135.05C143.35 135.05 149.78 125.83 149.78 111.25V101C149.78 86.4199 143.35 77.1999 130.69 77.1999C116.32 77.1999 110.75 87.2799 110.75 102.5V109.75Z" fill="#1877F2"/>
<path d="M245 52.9099C257 52.9099 268.37 55.4899 274.59 59.7699L267.73 81.6499C261.296 78.586 254.266 76.9746 247.14 76.9299C230.41 76.9299 223.14 86.5799 223.14 103.1V109.1C223.14 125.62 230.43 135.27 247.14 135.27C254.266 135.225 261.296 133.614 267.73 130.55L274.59 152.42C268.37 156.71 257.01 159.29 245 159.29C208.75 159.29 192.24 139.77 192.24 108.46V103.74C192.24 72.4299 208.75 52.9099 245 52.9099Z" fill="#1877F2"/>
<path d="M278.66 110V101C278.66 72.05 295.17 53 328.85 53C360.59 53 374.53 72.3 374.53 100.61V116.91H309.53C310.18 130.85 316.4 137.07 333.53 137.07C345.12 137.07 357.34 134.71 366.35 130.85L372 152C363.85 156.3 347.12 159.51 332.33 159.51C293.24 159.5 278.66 140 278.66 110ZM309.54 96.7H346.86V94.13C346.86 82.98 342.36 74.13 328.86 74.13C314.91 74.14 309.54 82.94 309.54 96.66V96.7Z" fill="#1877F2"/>
<path d="M489 109.32C489 137.84 475.28 159.32 447 159.32C431.56 159.32 420.84 151.6 416.55 141.73V157.17H387.39V3.8L418.27 1V69.2C422.77 60.2 432.64 52.9 447.01 52.9C475.32 52.9 489.01 74.35 489.01 102.9L489 109.32ZM458.12 102.24C458.12 87.87 452.55 77.15 437.75 77.15C425.09 77.15 418.23 86.15 418.23 100.74V111.46C418.23 126.04 425.09 135.05 437.75 135.05C452.55 135.05 458.12 124.33 458.12 109.96V102.24Z" fill="#1877F2"/>
<path d="M499.33 108.67V103.53C499.33 74.1399 516.06 52.9099 550.16 52.9099C584.26 52.9099 601 74.1399 601 103.53V108.67C601 138.05 584.27 159.29 550.17 159.29C516.07 159.29 499.33 138.05 499.33 108.67ZM570.11 101.38C570.11 87.8699 564.53 77.1499 550.11 77.1499C535.69 77.1499 530.16 87.8699 530.16 101.38V110.82C530.16 124.33 535.74 135.05 550.11 135.05C564.48 135.05 570.11 124.33 570.11 110.82V101.38Z" fill="#1877F2"/>
<path d="M611.27 108.67V103.53C611.27 74.1399 628 52.9099 662.1 52.9099C696.2 52.9099 712.93 74.1399 712.93 103.53V108.67C712.93 138.05 696.2 159.29 662.1 159.29C628 159.29 611.27 138.05 611.27 108.67ZM682.05 101.38C682.05 87.8699 676.47 77.1499 662.1 77.1499C647.73 77.1499 642.16 87.8699 642.16 101.38V110.82C642.16 124.33 647.73 135.05 662.1 135.05C676.47 135.05 682.05 124.33 682.05 110.82V101.38Z" fill="#1877F2"/>
<path d="M755.39 103.74L785.84 55.06H818.65L786.7 105.46L819.94 157.14H787.13L755.39 107.14V157.14H724.5V3.8L755.39 1V103.74Z" fill="#1877F2"/>
</svg>
